# xmcd
#
# Track frame offsets:
#	150
#	13405
#	23760
#	33197
#	43705
#	53073
#	64808
#	75771
#	85957
#	98368
#	108368
#	119426
#	130255
#	139848
#	151830
#
# Disc length: 2190 seconds
#
# Revision: 1
# Processed by: cddbd v1.5.2PL0 Copyright (c) Steve Scherf et al.
# Submitted via: audiograbber 1.83.01
#
DISCID=b3088c0f
DTITLE=Hank Snow - Greatest Hits CD 02
DYEAR=1900
DGENRE=Country
TTITLE0=Don't Hurt Anymore
TTITLE1=Spanish Fire Ball
TTITLE2=For Now And Always
TTITLE3=When Mexican Joe Met Jole Blon
TTITLE4=That Crazy Mambo Thing
TTITLE5=The Next Voice You Hear
TTITLE6=Let Me Go Lover
TTITLE7=Silver Bell
TTITLE8=Yellow Roses
TTITLE9=Would You Mind
TTITLE10=Cryin', Prayin', Waitin', Hopin'
TTITLE11=I'm Glad I Got To See You Once Again
TTITLE12=Mainliner (The Hawk Of The West)
TTITLE13=Born To Be Happy
TTITLE14=Stolen Moments
EXTD=
EXTT0=
EXTT1=
EXTT2=
EXTT3=
EXTT4=
EXTT5=
EXTT6=
EXTT7=
EXTT8=
EXTT9=
EXTT10=
EXTT11=
EXTT12=
EXTT13=
EXTT14=
PLAYORDER=
